HIERARCHY
ROOT Hips
{
	OFFSET -3.958830 18.904000 13.208200
	CHANNELS 6 Xposition Yposition Zposition Zrotation Yrotation Xrotation 
	JOINT LHipJoint
	{
		OFFSET 0.000000 0.000000 0.000000
		CHANNELS 3 Zrotation Yrotation Xrotation
		JOINT LeftUpLeg
		{
			OFFSET 1.800000 -1.400000 0.085000
			CHANNELS 3 Zrotation Yrotation Xrotation
			JOINT LeftLeg
			{
				OFFSET 2.215000 -6.000000 0.000000
				CHANNELS 3 Zrotation Yrotation Xrotation
				JOINT LeftFoot
				{
					OFFSET 2.500000 -6.900000 0.000000
					CHANNELS 3 Zrotation Yrotation Xrotation
					JOINT LeftToeBase
					{
						OFFSET 0.200000 -0.500000 1.950000
						CHANNELS 3 Zrotation Yrotation Xrotation
						End Site
						{
							OFFSET 0.000000 0.000000 0.000000
						}
					}
				}
			}
		}
	}
	JOINT RHipJoint
	{
		OFFSET 0.000000 0.000000 0.000000
		CHANNELS 3 Zrotation Yrotation Xrotation
		JOINT RightUpLeg
		{
			OFFSET -1.800000 -1.400000 0.085000
			CHANNELS 3 Zrotation Yrotation Xrotation
			JOINT RightLeg
			{
				OFFSET -2.215000 -6.000000 0.000000
				CHANNELS 3 Zrotation Yrotation Xrotation
				JOINT RightFoot
				{
					OFFSET -2.500000 -6.900000 0.000000
					CHANNELS 3 Zrotation Yrotation Xrotation
					JOINT RightToeBase
					{
						OFFSET -0.200000 -0.500000 1.950000
						CHANNELS 3 Zrotation Yrotation Xrotation
						End Site
						{
							OFFSET 0.000000 0.000000 0.000000
						}
					}
				}
			}
		}
	}
	JOINT LowerBack
	{
		OFFSET 0.000000 0.000000 0.000000
		CHANNELS 3 Zrotation Yrotation Xrotation
		JOINT Spine
		{
			OFFSET -0.087000 1.940000 -0.288900
			CHANNELS 3 Zrotation Yrotation Xrotation
			JOINT Spine1
			{
				OFFSET 0.000000 1.950000 0.060000
				CHANNELS 3 Zrotation Yrotation Xrotation
				JOINT Neck
				{
					OFFSET 0.000000 0.000000 0.000000
					CHANNELS 3 Zrotation Yrotation Xrotation
					JOINT Neck1
					{
						OFFSET 0.000000 1.600000 0.340000
						CHANNELS 3 Zrotation Yrotation Xrotation
						JOINT Head
						{
							OFFSET 0.000000 1.667000 -0.240000
							CHANNELS 3 Zrotation Yrotation Xrotation
							End Site
							{
								OFFSET 0.000000 0.000000 0.000000
							}
						}
					}
				}
				JOINT LeftShoulder
				{
					OFFSET 0.000000 0.000000 0.000000
					CHANNELS 3 Zrotation Yrotation Xrotation
					JOINT LeftArm
					{
						OFFSET 2.700000 1.550000 -0.730000
						CHANNELS 3 Zrotation Yrotation Xrotation
						JOINT LeftForeArm
						{
							OFFSET 5.450000 0.000000 0.000000
							CHANNELS 3 Zrotation Yrotation Xrotation
							JOINT LeftHand
							{
								OFFSET 3.450000 0.000000 0.000000
								CHANNELS 3 Zrotation Yrotation Xrotation
								JOINT LeftHandIndex1
								{
									OFFSET 0.750000 0.000000 0.000000
									CHANNELS 3 Zrotation Yrotation Xrotation
									End Site
									{
										OFFSET 0.000000 0.000000 0.000000
									}
								}
							}
						}
					}
				}
				JOINT RightShoulder
				{
					OFFSET 0.000000 0.000000 0.000000
					CHANNELS 3 Zrotation Yrotation Xrotation
					JOINT RightArm
					{
						OFFSET -2.700000 1.550000 -0.730000
						CHANNELS 3 Zrotation Yrotation Xrotation
						JOINT RightForeArm
						{
							OFFSET -5.450000 0.000000 0.000000
							CHANNELS 3 Zrotation Yrotation Xrotation
							JOINT RightHand
							{
								OFFSET -3.450000 0.000000 0.000000
								CHANNELS 3 Zrotation Yrotation Xrotation
								JOINT RightHandIndex1
								{
									OFFSET -0.750000 0.000000 0.000000
									CHANNELS 3 Zrotation Yrotation Xrotation
									End Site
									{
										OFFSET 0.000000 0.000000 0.000000
									}
								}
							}
						}
					}
				}
			}
		}
	}
}
MOTION
Frames: 8
Frame Time: 0.016667
-2.735630 16.944740 2.530420 -6.054237 -10.469617 -10.823338 -15.380799 11.575554 5.218095 17.653803 -0.166544 -45.754905 -11.184637 13.470458 37.054889 -0.323362 8.987888 1.331125 -0.674390 -1.021100 -0.739670 18.347967 -9.332424 3.081820 -4.232424 11.585052 -10.448811 16.446699 -19.106917 56.489408 -1.675996 -10.500304 1.053116 -0.507540 0.939140 0.055020 -3.448362 -1.800067 -9.174191 8.148148 5.150912 51.672284 -7.840699 11.551258 -13.421932 1.524001 -9.542327 -8.600219 -22.299178 8.807887 41.521401 10.139550 -4.491830 -11.486120 -10.772917 12.328386 -2.219555 -39.348877 -0.861609 -5.773465 69.852180 -49.731655 -31.696860 -3.967955 1.885760 0.916710 0.170760 -0.266470 0.033200 6.804654 1.609337 6.206975 34.580972 -8.373998 -16.869806 -54.814261 57.469579 -24.246611 1.365192 -0.165183 -0.749060 0.756130 0.875910 -0.051010 
-2.730670 16.937120 2.533590 -5.924051 -10.221256 -10.889714 -15.398681 11.563283 5.245683 17.807940 -0.182007 -45.640501 -11.919087 13.686018 36.824738 -0.280610 9.022638 1.318142 -0.663170 -0.994970 -0.724170 18.334992 -9.291606 3.079298 -4.408918 11.690334 -10.503622 16.602518 -19.241814 56.697528 -1.701101 -10.543003 1.038201 -0.508270 0.916890 0.059570 -3.406297 -1.861333 -9.192858 7.495548 5.228420 52.748758 -7.761810 11.517109 -13.098944 1.772862 -9.323171 -8.818536 -21.698717 8.675412 41.621836 9.673870 -4.040950 -11.904140 -11.459587 11.241669 -2.130414 -38.671029 -0.442285 -6.238346 69.740642 -48.528202 -31.013672 -3.952229 1.913286 0.908560 0.160670 -0.244780 0.032220 7.108422 2.621975 6.522338 34.705108 -8.300283 -16.991361 -56.714051 55.910101 -24.786735 1.395582 -0.178745 -0.725590 0.743950 0.857740 -0.045240 
-2.727640 16.933350 2.533230 -5.742123 -10.107093 -11.020893 -15.418124 11.570354 5.261226 17.926702 -0.188784 -45.431951 -12.587764 13.877775 36.606391 -0.250210 9.058518 1.300865 -0.651580 -0.977360 -0.710300 18.318447 -9.255400 3.072320 -4.560106 11.776779 -10.495329 16.670048 -19.294892 56.854272 -1.718212 -10.569800 1.026614 -0.509470 0.895360 0.068330 -3.355381 -1.943327 -9.202328 6.666505 5.386936 53.890923 -7.559594 11.482609 -12.793326 1.993734 -9.132814 -9.063757 -21.084442 8.591318 41.492248 9.280360 -3.558980 -12.371410 -12.106824 10.056870 -1.976980 -38.000319 0.082545 -6.693615 69.874951 -46.914342 -30.224419 -3.942997 1.957356 0.906600 0.151670 -0.228320 0.030250 7.455372 3.782196 6.851600 34.615364 -8.143053 -17.089741 -58.578868 54.325251 -25.322922 1.423000 -0.203196 -0.706570 0.726870 0.845940 -0.045600 
-2.724340 16.930260 2.530880 -5.473766 -10.011397 -11.218233 -15.430018 11.587524 5.259272 17.878730 -0.266938 -45.169945 -13.085969 13.988753 36.428832 -0.218277 9.054952 1.298068 -0.637350 -0.949280 -0.696010 18.303133 -9.245430 3.065374 -4.847230 11.830566 -10.463740 16.698636 -19.366777 57.071371 -1.739297 -10.608698 1.011896 -0.508490 0.872270 0.078880 -3.314519 -1.995768 -9.201488 5.834056 5.524927 54.913955 -7.436238 11.366667 -12.250128 2.247343 -8.829049 -9.326236 -20.186961 8.357237 41.397669 8.600550 -2.978430 -12.878700 -12.802799 8.647919 -1.780902 -36.976976 0.716286 -7.232527 70.024851 -45.161819 -29.363335 -3.937055 2.006872 0.897830 0.145140 -0.208410 0.029230 7.763255 5.060529 7.205914 34.614134 -7.892771 -17.271329 -60.119308 52.738716 -25.772210 1.454510 -0.238254 -0.680510 0.709000 0.830830 -0.042210 
-2.721390 16.928010 2.528580 -5.045059 -9.894760 -11.397123 -15.432500 11.609553 5.245072 17.598697 -0.478952 -44.921283 -13.422316 14.020222 36.300907 -0.197538 9.032036 1.310130 -0.628800 -0.932340 -0.684080 18.290391 -9.264711 3.054493 -5.363372 11.823000 -10.473787 16.739967 -19.441607 57.203245 -1.755383 -10.640689 0.993853 -0.508150 0.864390 0.093880 -3.288583 -2.014998 -9.186136 4.934885 5.718449 55.723413 -7.316253 11.188960 -11.670262 2.398802 -8.500338 -9.533910 -19.260991 8.127089 41.205394 8.124940 -2.483600 -13.360340 -13.457566 7.219252 -1.573081 -35.762715 1.171233 -7.669872 69.979798 -43.294977 -28.336824 -3.941294 2.050862 0.894650 0.143910 -0.189690 0.032080 8.217139 6.254981 7.503401 34.487256 -7.709949 -17.469748 -61.839904 51.311967 -26.397120 1.482944 -0.266681 -0.664780 0.701730 0.820310 -0.036790 
-2.713180 16.926290 2.527310 -4.876238 -9.773015 -11.489537 -15.426290 11.619500 5.231317 17.371047 -0.702610 -44.774414 -13.509487 13.951949 36.238864 -0.195779 8.994137 1.325460 -0.625110 -0.923750 -0.676160 18.288088 -9.282659 3.053636 -5.739440 11.775663 -10.483247 16.964835 -19.607705 57.152990 -1.763721 -10.668443 0.987054 -0.506940 0.861210 0.099800 -3.291793 -2.013211 -9.172761 4.634928 5.539771 56.388449 -7.477626 10.890647 -11.140593 2.599085 -8.306005 -9.708533 -18.683611 7.982570 40.957930 7.440160 -2.058390 -13.668640 -14.223302 5.909988 -1.452034 -34.277065 1.553121 -7.978307 69.559273 -41.608379 -27.180723 -3.954365 2.080541 0.889740 0.148370 -0.183830 0.030440 8.633243 7.322655 7.774772 34.247517 -7.639965 -17.639519 -62.909185 50.129350 -26.691311 1.500169 -0.292210 -0.657450 0.702380 0.818370 -0.037040 
-2.706350 16.929040 2.525160 -4.663653 -9.632528 -11.702129 -15.410643 11.661931 5.189332 17.001128 -0.967131 -44.418261 -13.425103 13.770145 36.106208 -0.212180 8.903068 1.355797 -0.620970 -0.915760 -0.669850 18.286340 -9.334022 3.045065 -6.127447 11.620376 -10.311181 17.076907 -19.657788 56.947362 -1.759790 -10.658644 0.984108 -0.501890 0.855930 0.101680 -3.305929 -2.007177 -9.137963 4.358396 5.336528 57.099090 -7.628226 10.567625 -10.692835 2.724635 -8.210645 -9.884961 -18.366842 8.007755 40.689440 7.050550 -1.690490 -14.010630 -14.806766 4.726932 -1.307493 -32.888952 1.820025 -8.217737 68.696264 -40.132973 -25.952094 -3.959660 2.108863 0.891400 0.147770 -0.179630 0.026730 9.022501 8.306399 8.016597 33.983104 -7.598289 -17.796610 -63.700723 48.997987 -26.807731 1.519168 -0.322609 -0.656440 0.701760 0.817490 -0.039400 
-2.699080 16.933850 2.522700 -4.400375 -9.546427 -11.820152 -15.384849 11.676852 5.159188 16.654365 -1.243975 -44.129124 -13.430984 13.614038 35.899015 -0.221226 8.814426 1.390803 -0.622260 -0.911950 -0.669400 18.294964 -9.398856 3.037376 -6.618334 11.481000 -10.297097 17.126118 -19.694363 56.805724 -1.750624 -10.647460 0.984528 -0.497930 0.858270 0.096780 -3.350659 -1.939404 -9.105496 4.280232 5.049775 57.573956 -7.920292 10.184894 -10.318532 2.749800 -8.235039 -10.114679 -18.388804 8.155471 40.468301 6.952160 -1.521960 -14.023970 -15.008701 3.718814 -1.102104 -31.809296 1.903236 -8.369278 67.401367 -38.904059 -24.707154 -3.964763 2.125087 0.886940 0.148680 -0.179690 0.025910 9.238878 9.144778 8.247172 34.072761 -7.562266 -17.955212 -64.562318 47.824036 -26.907923 1.541439 -0.351561 -0.658130 0.709810 0.817170 -0.037110 
